<svg version="1.1" xmlns="http://www.w3.org/2000/svg" viewBox="0 0 1290.658548448726 1148.7653049747132" width="1290.658548448726" height="1148.7653049747132">
  <!-- svg-source:excalidraw -->
  
  <defs>
    <style class="style-fonts">
      @font-face {
        font-family: "Virgil";
        src: url("https://excalidraw.com/Virgil.woff2");
      }
      @font-face {
        font-family: "Cascadia";
        src: url("https://excalidraw.com/Cascadia.woff2");
      }
    </style>
  </defs>
  <rect x="0" y="0" width="1290.658548448726" height="1148.7653049747132" fill="#ffffff"></rect><g transform="translate(545.1763150415295 10) rotate(0 60.3919677734375 9.600000000000023)"><text x="0" y="0" font-family="Virgil, Segoe UI Emoji" font-size="16px" fill="#000000" text-anchor="start" style="white-space: pre;" direction="ltr" dominant-baseline="text-before-edge">Input: [1, 2, 3]</text></g><g transform="translate(545.2279548064685 48.598656377371526) rotate(0 43.407989501953125 76.79999999999995)"><text x="0" y="0" font-family="Virgil, Segoe UI Emoji" font-size="16px" fill="#000000" text-anchor="start" style="white-space: pre;" direction="ltr" dominant-baseline="text-before-edge">Output: [</text><text x="0" y="19.2" font-family="Virgil, Segoe UI Emoji" font-size="16px" fill="#000000" text-anchor="start" style="white-space: pre;" direction="ltr" dominant-baseline="text-before-edge">  [1, 2, 3],</text><text x="0" y="38.4" font-family="Virgil, Segoe UI Emoji" font-size="16px" fill="#000000" text-anchor="start" style="white-space: pre;" direction="ltr" dominant-baseline="text-before-edge">  [1, 2, 3],</text><text x="0" y="57.599999999999994" font-family="Virgil, Segoe UI Emoji" font-size="16px" fill="#000000" text-anchor="start" style="white-space: pre;" direction="ltr" dominant-baseline="text-before-edge">  [2, 1, 3],</text><text x="0" y="76.8" font-family="Virgil, Segoe UI Emoji" font-size="16px" fill="#000000" text-anchor="start" style="white-space: pre;" direction="ltr" dominant-baseline="text-before-edge">  [2, 3, 1],</text><text x="0" y="96" font-family="Virgil, Segoe UI Emoji" font-size="16px" fill="#000000" text-anchor="start" style="white-space: pre;" direction="ltr" dominant-baseline="text-before-edge">  [3, 1, 2],</text><text x="0" y="115.19999999999999" font-family="Virgil, Segoe UI Emoji" font-size="16px" fill="#000000" text-anchor="start" style="white-space: pre;" direction="ltr" dominant-baseline="text-before-edge">  [3, 2, 1]</text><text x="0" y="134.4" font-family="Virgil, Segoe UI Emoji" font-size="16px" fill="#000000" text-anchor="start" style="white-space: pre;" direction="ltr" dominant-baseline="text-before-edge">]</text></g><g stroke-linecap="round" transform="translate(529.5362819516722 378.4932850910984) rotate(0 88 53)"><path d="M26.5 0 M26.5 0 C64.38 0.99, 102.02 1.41, 149.5 0 M26.5 0 C68.38 -0.48, 111.5 0.02, 149.5 0 M149.5 0 C167.73 -0.18, 174.94 6.91, 176 26.5 M149.5 0 C169.29 0.28, 174.57 10.77, 176 26.5 M176 26.5 C178.01 43.82, 177.95 61.71, 176 79.5 M176 26.5 C176.32 46.67, 176.06 65.62, 176 79.5 M176 79.5 C176.72 97.48, 168.74 105.99, 149.5 106 M176 79.5 C175.9 95.59, 168.98 108.04, 149.5 106 M149.5 106 C124.14 108.32, 98.86 106.93, 26.5 106 M149.5 106 C114.75 105.5, 81.18 105.98, 26.5 106 M26.5 106 C8.8 107.65, 1.44 97.24, 0 79.5 M26.5 106 C9.47 106.92, 1.1 98.55, 0 79.5 M0 79.5 C1.43 69.73, -0.59 57.93, 0 26.5 M0 79.5 C0.38 65.73, -0.05 51.63, 0 26.5 M0 26.5 C-0.7 6.87, 8.68 0.05, 26.5 0 M0 26.5 C-0.91 7.95, 6.85 0.34, 26.5 0" stroke="#000000" stroke-width="1" fill="none"></path></g><g transform="translate(534.5362819516722 383.4932850910984) rotate(0 75.97594451904297 48)"><text x="0" y="0" font-family="Virgil, Segoe UI Emoji" font-size="16px" fill="#000000" text-anchor="start" style="white-space: pre;" direction="ltr" dominant-baseline="text-before-edge">permutationsHelper(</text><text x="0" y="19.2" font-family="Virgil, Segoe UI Emoji" font-size="16px" fill="#000000" text-anchor="start" style="white-space: pre;" direction="ltr" dominant-baseline="text-before-edge">  [1, 2, 3], </text><text x="0" y="38.4" font-family="Virgil, Segoe UI Emoji" font-size="16px" fill="#000000" text-anchor="start" style="white-space: pre;" direction="ltr" dominant-baseline="text-before-edge">  [], </text><text x="0" y="57.599999999999994" font-family="Virgil, Segoe UI Emoji" font-size="16px" fill="#000000" text-anchor="start" style="white-space: pre;" direction="ltr" dominant-baseline="text-before-edge">  permutations</text><text x="0" y="76.8" font-family="Virgil, Segoe UI Emoji" font-size="16px" fill="#000000" text-anchor="start" style="white-space: pre;" direction="ltr" dominant-baseline="text-before-edge">)</text></g><g stroke-linecap="round" transform="translate(127.04564773927996 535.2959922590278) rotate(0 88 53)"><path d="M26.5 0 M26.5 0 C75.83 -0.08, 124.16 2.05, 149.5 0 M26.5 0 C65.09 0.72, 102.58 -0.17, 149.5 0 M149.5 0 C166.64 1.37, 175.02 8.77, 176 26.5 M149.5 0 C165.5 1.79, 177.11 9.07, 176 26.5 M176 26.5 C175.33 47.14, 175.86 65.29, 176 79.5 M176 26.5 C176.59 45.83, 175.37 63.83, 176 79.5 M176 79.5 C177.47 97.45, 166.39 106.18, 149.5 106 M176 79.5 C174.36 95.72, 168.73 107.09, 149.5 106 M149.5 106 C107.82 103.7, 70.34 105.03, 26.5 106 M149.5 106 C119.31 106.51, 87.13 105.43, 26.5 106 M26.5 106 C10.21 107.47, -0.91 95.71, 0 79.5 M26.5 106 C11.05 108.3, -2.08 98.57, 0 79.5 M0 79.5 C0.37 62.45, 0.45 45.75, 0 26.5 M0 79.5 C-1.38 63.69, -1.49 46.44, 0 26.5 M0 26.5 C-1.7 9.81, 9.28 1.05, 26.5 0 M0 26.5 C-1.93 10.08, 9.13 -1.89, 26.5 0" stroke="#000000" stroke-width="1" fill="none"></path></g><g transform="translate(132.04564773927996 540.2959922590278) rotate(0 75.97594451904297 48)"><text x="0" y="0" font-family="Virgil, Segoe UI Emoji" font-size="16px" fill="#000000" text-anchor="start" style="white-space: pre;" direction="ltr" dominant-baseline="text-before-edge">permutationsHelper(</text><text x="0" y="19.2" font-family="Virgil, Segoe UI Emoji" font-size="16px" fill="#000000" text-anchor="start" style="white-space: pre;" direction="ltr" dominant-baseline="text-before-edge">  [2, 3], </text><text x="0" y="38.4" font-family="Virgil, Segoe UI Emoji" font-size="16px" fill="#000000" text-anchor="start" style="white-space: pre;" direction="ltr" dominant-baseline="text-before-edge">  [1], </text><text x="0" y="57.599999999999994" font-family="Virgil, Segoe UI Emoji" font-size="16px" fill="#000000" text-anchor="start" style="white-space: pre;" direction="ltr" dominant-baseline="text-before-edge">  permutations</text><text x="0" y="76.8" font-family="Virgil, Segoe UI Emoji" font-size="16px" fill="#000000" text-anchor="start" style="white-space: pre;" direction="ltr" dominant-baseline="text-before-edge">)</text></g><g stroke-linecap="round" transform="translate(536.5580043303444 522.7024187268753) rotate(0 88 53)"><path d="M26.5 0 M26.5 0 C64.54 -0.98, 99.24 -1.86, 149.5 0 M26.5 0 C59.47 0.79, 91.13 -0.21, 149.5 0 M149.5 0 C168.04 -0.19, 177.67 8.14, 176 26.5 M149.5 0 C168.82 -0.64, 175.3 7.58, 176 26.5 M176 26.5 C175.42 44, 175.77 64.9, 176 79.5 M176 26.5 C176.01 46.62, 176.49 68.35, 176 79.5 M176 79.5 C176.61 95.67, 166.85 106.77, 149.5 106 M176 79.5 C176.91 98.17, 167.25 104.25, 149.5 106 M149.5 106 C121.16 107.41, 91.48 107.32, 26.5 106 M149.5 106 C111.16 106.39, 70.67 107.11, 26.5 106 M26.5 106 C9.03 105.37, 1.12 96.62, 0 79.5 M26.5 106 C7.73 106.75, -1.64 98.35, 0 79.5 M0 79.5 C1.74 67.76, 1.35 59.1, 0 26.5 M0 79.5 C-0.34 68.56, 0.18 55.85, 0 26.5 M0 26.5 C0.67 8.36, 8.58 0.43, 26.5 0 M0 26.5 C-0.18 10.67, 8.4 -1.18, 26.5 0" stroke="#000000" stroke-width="1" fill="none"></path></g><g transform="translate(541.5580043303444 527.7024187268753) rotate(0 75.97594451904297 48)"><text x="0" y="0" font-family="Virgil, Segoe UI Emoji" font-size="16px" fill="#000000" text-anchor="start" style="white-space: pre;" direction="ltr" dominant-baseline="text-before-edge">permutationsHelper(</text><text x="0" y="19.2" font-family="Virgil, Segoe UI Emoji" font-size="16px" fill="#000000" text-anchor="start" style="white-space: pre;" direction="ltr" dominant-baseline="text-before-edge">  [1, 3], </text><text x="0" y="38.4" font-family="Virgil, Segoe UI Emoji" font-size="16px" fill="#000000" text-anchor="start" style="white-space: pre;" direction="ltr" dominant-baseline="text-before-edge">  [2], </text><text x="0" y="57.599999999999994" font-family="Virgil, Segoe UI Emoji" font-size="16px" fill="#000000" text-anchor="start" style="white-space: pre;" direction="ltr" dominant-baseline="text-before-edge">  permutations</text><text x="0" y="76.8" font-family="Virgil, Segoe UI Emoji" font-size="16px" fill="#000000" text-anchor="start" style="white-space: pre;" direction="ltr" dominant-baseline="text-before-edge">)</text></g><g stroke-linecap="round" transform="translate(1001.0087259633538 521.3807496996958) rotate(0 88 53)"><path d="M26.5 0 M26.5 0 C60.78 2.08, 93.29 -0.21, 149.5 0 M26.5 0 C72.62 -0.47, 118.26 -1.15, 149.5 0 M149.5 0 C166.84 1.6, 174.59 9.51, 176 26.5 M149.5 0 C167.81 1.48, 177.48 8.82, 176 26.5 M176 26.5 C177.81 46.65, 177.37 68.3, 176 79.5 M176 26.5 C175.92 38.68, 176.93 49.55, 176 79.5 M176 79.5 C176.02 97.04, 168.43 107.17, 149.5 106 M176 79.5 C173.78 96.33, 167.08 107.8, 149.5 106 M149.5 106 C125.81 107.05, 100.27 107.43, 26.5 106 M149.5 106 C121.65 105.26, 91.97 106.36, 26.5 106 M26.5 106 C10.36 105.55, -1.76 98.47, 0 79.5 M26.5 106 C10.44 104.06, -0.41 95.33, 0 79.5 M0 79.5 C-0.8 59.44, 0.48 40, 0 26.5 M0 79.5 C0.32 64.44, 0.31 47.86, 0 26.5 M0 26.5 C-1.65 7.84, 7.23 -1.42, 26.5 0 M0 26.5 C-0.12 6.84, 6.66 2.13, 26.5 0" stroke="#000000" stroke-width="1" fill="none"></path></g><g transform="translate(1006.0087259633538 526.3807496996958) rotate(0 75.97594451904297 48)"><text x="0" y="0" font-family="Virgil, Segoe UI Emoji" font-size="16px" fill="#000000" text-anchor="start" style="white-space: pre;" direction="ltr" dominant-baseline="text-before-edge">permutationsHelper(</text><text x="0" y="19.2" font-family="Virgil, Segoe UI Emoji" font-size="16px" fill="#000000" text-anchor="start" style="white-space: pre;" direction="ltr" dominant-baseline="text-before-edge">  [1, 2], </text><text x="0" y="38.4" font-family="Virgil, Segoe UI Emoji" font-size="16px" fill="#000000" text-anchor="start" style="white-space: pre;" direction="ltr" dominant-baseline="text-before-edge">  [3], </text><text x="0" y="57.599999999999994" font-family="Virgil, Segoe UI Emoji" font-size="16px" fill="#000000" text-anchor="start" style="white-space: pre;" direction="ltr" dominant-baseline="text-before-edge">  permutations</text><text x="0" y="76.8" font-family="Virgil, Segoe UI Emoji" font-size="16px" fill="#000000" text-anchor="start" style="white-space: pre;" direction="ltr" dominant-baseline="text-before-edge">)</text></g><g stroke-linecap="round"><g transform="translate(623.4151097607264 485.3479557085284) rotate(0 0.3569807908356779 9.068207417731287)"><path d="M0.64 -0.16 C0.75 2.93, 1.17 14.76, 1.2 17.91 M-0.49 -1.29 C-0.49 2.05, 0.62 16.41, 0.77 19.43" stroke="#000000" stroke-width="1" fill="none"></path></g></g><mask></mask><g stroke-linecap="round"><g transform="translate(194.5674150504219 500.5346446651711) rotate(0 446.0555657694165 0.12678006593444024)"><path d="M-0.46 0.17 C148.28 0.42, 743.97 0.88, 892.57 1.05 M1.5 -0.79 C150.12 -0.81, 743.28 -0.56, 891.97 -0.53" stroke="#000000" stroke-width="1" fill="none"></path></g></g><mask></mask><g stroke-linecap="round"><g transform="translate(198.83798818678451 498.32553030221743) rotate(0 -0.18098266339688962 18.050147806339737)"><path d="M-1.12 -0.07 C-1.37 6.03, -1.33 29.81, -1.26 35.93 M0.5 -1.16 C0.57 5.17, 1.21 30.71, 0.84 37.26" stroke="#000000" stroke-width="1" fill="none"></path></g><g transform="translate(198.83798818678451 498.32553030221743) rotate(0 -0.18098266339688962 18.050147806339737)"><path d="M-5.31 18.34 C-3.97 24.83, -0.93 31.78, 2.63 37.04 M-6.08 19.23 C-3.69 24.49, -2.52 29.24, 0.68 37.95" stroke="#000000" stroke-width="1" fill="none"></path></g><g transform="translate(198.83798818678451 498.32553030221743) rotate(0 -0.18098266339688962 18.050147806339737)"><path d="M7.12 18.47 C4.46 24.81, 3.49 31.71, 2.63 37.04 M6.35 19.36 C5.35 24.7, 3.14 29.42, 0.68 37.95" stroke="#000000" stroke-width="1" fill="none"></path></g></g><mask></mask><g stroke-linecap="round"><g transform="translate(625.4431017041825 501.48461233933745) rotate(0 -0.22276109660333532 10.79131917869995)"><path d="M0.62 0.51 C0.55 3.89, -0.05 16.98, -0.21 20.48 M-0.51 -0.27 C-0.74 3.27, -0.98 18.54, -1.07 21.85" stroke="#000000" stroke-width="1" fill="none"></path></g><g transform="translate(625.4431017041825 501.48461233933745) rotate(0 -0.22276109660333532 10.79131917869995)"><path d="M-3.98 12.15 C-3.62 15.17, -1.63 18.62, -1.76 22.17 M-4.83 11.95 C-2.98 15.62, -2.15 18.51, -1.06 21.4" stroke="#000000" stroke-width="1" fill="none"></path></g><g transform="translate(625.4431017041825 501.48461233933745) rotate(0 -0.22276109660333532 10.79131917869995)"><path d="M3.14 12.3 C1.23 15.31, 0.96 18.71, -1.76 22.17 M2.28 12.1 C1.76 15.7, 0.21 18.55, -1.06 21.4" stroke="#000000" stroke-width="1" fill="none"></path></g></g><mask></mask><g stroke-linecap="round"><g transform="translate(1087.0891115063214 499.7234289225055) rotate(0 -1.492485650852359 9.903157589722923)"><path d="M-0.17 0.01 C-0.76 3.29, -2.55 16.44, -2.81 19.86 M-1.72 -1.03 C-2.02 2.34, -0.5 17.05, -0.64 20.84" stroke="#000000" stroke-width="1" fill="none"></path></g><g transform="translate(1087.0891115063214 499.7234289225055) rotate(0 -1.492485650852359 9.903157589722923)"><path d="M-4.61 10.22 C-4.11 14.64, -2.05 17.58, -1.28 21.32 M-4.33 10.74 C-3.59 14.8, -2.11 17.55, -0.45 20.58" stroke="#000000" stroke-width="1" fill="none"></path></g><g transform="translate(1087.0891115063214 499.7234289225055) rotate(0 -1.492485650852359 9.903157589722923)"><path d="M2.57 9.93 C0.48 14.45, -0.06 17.49, -1.28 21.32 M2.85 10.45 C1.23 14.67, 0.36 17.52, -0.45 20.58" stroke="#000000" stroke-width="1" fill="none"></path></g></g><mask></mask><g stroke-linecap="round" transform="translate(21.782838951240592 704.6943521002663) rotate(0 88 53)"><path d="M26.5 0 M26.5 0 C51.63 -1.4, 80.91 1.36, 149.5 0 M26.5 0 C54.74 -1.42, 84.32 0.08, 149.5 0 M149.5 0 C165.97 1, 177.49 10.73, 176 26.5 M149.5 0 C166.23 -0.34, 178.22 6.76, 176 26.5 M176 26.5 C177.03 38.73, 176.93 52.6, 176 79.5 M176 26.5 C175.59 41.25, 176.78 53.8, 176 79.5 M176 79.5 C175.7 98.19, 168.28 106.26, 149.5 106 M176 79.5 C174.47 95.15, 168.07 104.84, 149.5 106 M149.5 106 C113.99 107.97, 82.63 105.59, 26.5 106 M149.5 106 C110.12 104.63, 72.66 105.87, 26.5 106 M26.5 106 C7.53 106.61, 1.03 97.61, 0 79.5 M26.5 106 C10.97 105.07, 1.6 95.62, 0 79.5 M0 79.5 C-0.08 58.29, -1.27 39.5, 0 26.5 M0 79.5 C0.38 67.67, 0.36 57.66, 0 26.5 M0 26.5 C-0.54 7.12, 8.07 -1.51, 26.5 0 M0 26.5 C-1.3 8.01, 10.92 -0.19, 26.5 0" stroke="#000000" stroke-width="1" fill="none"></path></g><g transform="translate(26.782838951240592 709.6943521002663) rotate(0 75.97594451904297 48)"><text x="0" y="0" font-family="Virgil, Segoe UI Emoji" font-size="16px" fill="#000000" text-anchor="start" style="white-space: pre;" direction="ltr" dominant-baseline="text-before-edge">permutationsHelper(</text><text x="0" y="19.2" font-family="Virgil, Segoe UI Emoji" font-size="16px" fill="#000000" text-anchor="start" style="white-space: pre;" direction="ltr" dominant-baseline="text-before-edge">  [3], </text><text x="0" y="38.4" font-family="Virgil, Segoe UI Emoji" font-size="16px" fill="#000000" text-anchor="start" style="white-space: pre;" direction="ltr" dominant-baseline="text-before-edge">  [1, 2], </text><text x="0" y="57.599999999999994" font-family="Virgil, Segoe UI Emoji" font-size="16px" fill="#000000" text-anchor="start" style="white-space: pre;" direction="ltr" dominant-baseline="text-before-edge">  permutations</text><text x="0" y="76.8" font-family="Virgil, Segoe UI Emoji" font-size="16px" fill="#000000" text-anchor="start" style="white-space: pre;" direction="ltr" dominant-baseline="text-before-edge">)</text></g><g stroke-linecap="round" transform="translate(238.12895982638838 705.6647504052021) rotate(0 88 53)"><path d="M26.5 0 M26.5 0 C58.34 0.92, 84.36 0.07, 149.5 0 M26.5 0 C54.97 -0.4, 83.21 -1.13, 149.5 0 M149.5 0 C166.75 -0.63, 175.19 10.76, 176 26.5 M149.5 0 C165.05 0.66, 177.29 8.44, 176 26.5 M176 26.5 C176.1 43.99, 177.12 60.69, 176 79.5 M176 26.5 C177.08 43.36, 175.45 60.45, 176 79.5 M176 79.5 C177.92 95.34, 165.67 106.91, 149.5 106 M176 79.5 C174.42 96.71, 167.36 108.25, 149.5 106 M149.5 106 C105.69 105.68, 59.73 105.49, 26.5 106 M149.5 106 C105.13 106.59, 62.54 107.47, 26.5 106 M26.5 106 C9.32 105.87, -0.24 96.38, 0 79.5 M26.5 106 C8.35 104.93, 0.58 97.27, 0 79.5 M0 79.5 C0.07 57.21, 0.5 37.77, 0 26.5 M0 79.5 C1.09 65.47, -0.62 53.07, 0 26.5 M0 26.5 C0.95 10.36, 7.66 1.54, 26.5 0 M0 26.5 C1.03 7.16, 10.94 1.88, 26.5 0" stroke="#000000" stroke-width="1" fill="none"></path></g><g transform="translate(243.12895982638838 710.6647504052021) rotate(0 75.97594451904297 48)"><text x="0" y="0" font-family="Virgil, Segoe UI Emoji" font-size="16px" fill="#000000" text-anchor="start" style="white-space: pre;" direction="ltr" dominant-baseline="text-before-edge">permutationsHelper(</text><text x="0" y="19.2" font-family="Virgil, Segoe UI Emoji" font-size="16px" fill="#000000" text-anchor="start" style="white-space: pre;" direction="ltr" dominant-baseline="text-before-edge">  [2], </text><text x="0" y="38.4" font-family="Virgil, Segoe UI Emoji" font-size="16px" fill="#000000" text-anchor="start" style="white-space: pre;" direction="ltr" dominant-baseline="text-before-edge">  [1, 3], </text><text x="0" y="57.599999999999994" font-family="Virgil, Segoe UI Emoji" font-size="16px" fill="#000000" text-anchor="start" style="white-space: pre;" direction="ltr" dominant-baseline="text-before-edge">  permutations</text><text x="0" y="76.8" font-family="Virgil, Segoe UI Emoji" font-size="16px" fill="#000000" text-anchor="start" style="white-space: pre;" direction="ltr" dominant-baseline="text-before-edge">)</text></g><g stroke-linecap="round" transform="translate(453.82134647009843 703.5175490694442) rotate(0 88 53)"><path d="M26.5 0 M26.5 0 C55.3 0.82, 86.33 1.55, 149.5 0 M26.5 0 C59.73 -0.8, 91.92 -0.72, 149.5 0 M149.5 0 C168.3 -0.1, 175.2 7.12, 176 26.5 M149.5 0 C167.87 0.27, 175.57 8.98, 176 26.5 M176 26.5 C176.05 39.35, 177.89 54.89, 176 79.5 M176 26.5 C175.65 45.31, 176.29 66.39, 176 79.5 M176 79.5 C175.12 97.94, 166.82 107.18, 149.5 106 M176 79.5 C177.86 98.97, 166.79 108.08, 149.5 106 M149.5 106 C112.71 104.51, 72.52 106.41, 26.5 106 M149.5 106 C122.91 106.81, 95.7 106.94, 26.5 106 M26.5 106 C7.21 105.88, -1.37 97.6, 0 79.5 M26.5 106 C9.72 107.11, -0.61 97.48, 0 79.5 M0 79.5 C-0.08 60.39, 0.44 39.72, 0 26.5 M0 79.5 C-0.48 63.14, -0.39 47.62, 0 26.5 M0 26.5 C-0.16 7.54, 10.09 1.97, 26.5 0 M0 26.5 C0.72 7.23, 6.7 2.04, 26.5 0" stroke="#000000" stroke-width="1" fill="none"></path></g><g transform="translate(458.82134647009843 708.5175490694442) rotate(0 75.97594451904297 48)"><text x="0" y="0" font-family="Virgil, Segoe UI Emoji" font-size="16px" fill="#000000" text-anchor="start" style="white-space: pre;" direction="ltr" dominant-baseline="text-before-edge">permutationsHelper(</text><text x="0" y="19.2" font-family="Virgil, Segoe UI Emoji" font-size="16px" fill="#000000" text-anchor="start" style="white-space: pre;" direction="ltr" dominant-baseline="text-before-edge">  [3], </text><text x="0" y="38.4" font-family="Virgil, Segoe UI Emoji" font-size="16px" fill="#000000" text-anchor="start" style="white-space: pre;" direction="ltr" dominant-baseline="text-before-edge">  [2, 1], </text><text x="0" y="57.599999999999994" font-family="Virgil, Segoe UI Emoji" font-size="16px" fill="#000000" text-anchor="start" style="white-space: pre;" direction="ltr" dominant-baseline="text-before-edge">  permutations</text><text x="0" y="76.8" font-family="Virgil, Segoe UI Emoji" font-size="16px" fill="#000000" text-anchor="start" style="white-space: pre;" direction="ltr" dominant-baseline="text-before-edge">)</text></g><g stroke-linecap="round" transform="translate(670.1631249169868 704.4879473743799) rotate(0 88 53)"><path d="M26.5 0 M26.5 0 C51.49 0.63, 78.15 -1.82, 149.5 0 M26.5 0 C72.64 0.04, 120.26 -0.26, 149.5 0 M149.5 0 C166.37 -1.72, 176.61 9.07, 176 26.5 M149.5 0 C166.74 0.15, 175.43 10.05, 176 26.5 M176 26.5 C177.55 43.11, 177.41 60.59, 176 79.5 M176 26.5 C176.4 39.23, 175.48 51.75, 176 79.5 M176 79.5 C175.66 98.34, 168.78 107.57, 149.5 106 M176 79.5 C175.63 99.24, 167.41 104.61, 149.5 106 M149.5 106 C116.17 106.18, 82.46 104.11, 26.5 106 M149.5 106 C107.77 106.9, 65.53 106.37, 26.5 106 M26.5 106 C7.46 106.43, 0.77 98.13, 0 79.5 M26.5 106 C8.22 106.31, 2.02 97.74, 0 79.5 M0 79.5 C0.56 67.33, -0.15 52.41, 0 26.5 M0 79.5 C-0.15 65.93, 0.19 53.33, 0 26.5 M0 26.5 C1.26 10.8, 9.46 -1.39, 26.5 0 M0 26.5 C-2.14 10.88, 10.06 0.34, 26.5 0" stroke="#000000" stroke-width="1" fill="none"></path></g><g transform="translate(675.1631249169868 709.4879473743799) rotate(0 75.97594451904297 48)"><text x="0" y="0" font-family="Virgil, Segoe UI Emoji" font-size="16px" fill="#000000" text-anchor="start" style="white-space: pre;" direction="ltr" dominant-baseline="text-before-edge">permutationsHelper(</text><text x="0" y="19.2" font-family="Virgil, Segoe UI Emoji" font-size="16px" fill="#000000" text-anchor="start" style="white-space: pre;" direction="ltr" dominant-baseline="text-before-edge">  [1], </text><text x="0" y="38.4" font-family="Virgil, Segoe UI Emoji" font-size="16px" fill="#000000" text-anchor="start" style="white-space: pre;" direction="ltr" dominant-baseline="text-before-edge">  [2, 3], </text><text x="0" y="57.599999999999994" font-family="Virgil, Segoe UI Emoji" font-size="16px" fill="#000000" text-anchor="start" style="white-space: pre;" direction="ltr" dominant-baseline="text-before-edge">  permutations</text><text x="0" y="76.8" font-family="Virgil, Segoe UI Emoji" font-size="16px" fill="#000000" text-anchor="start" style="white-space: pre;" direction="ltr" dominant-baseline="text-before-edge">)</text></g><g stroke-linecap="round" transform="translate(887.8564143188423 707.5639480978073) rotate(0 88 53)"><path d="M26.5 0 M26.5 0 C61.76 2.37, 96.51 0.38, 149.5 0 M26.5 0 C51.13 0.15, 77.14 -0.37, 149.5 0 M149.5 0 C166.87 -1.74, 176.35 7.36, 176 26.5 M149.5 0 C168.51 -1.29, 176.24 7.08, 176 26.5 M176 26.5 C175.02 38.8, 175.23 51.99, 176 79.5 M176 26.5 C176.4 40.14, 176.84 55.57, 176 79.5 M176 79.5 C176.46 96.47, 168.74 104.16, 149.5 106 M176 79.5 C177.04 97.73, 168.83 106.15, 149.5 106 M149.5 106 C116.47 106.98, 81.78 107.11, 26.5 106 M149.5 106 C117.83 105.97, 85.67 106.39, 26.5 106 M26.5 106 C8.63 104.06, 0.62 96.03, 0 79.5 M26.5 106 C10.12 107.92, 0.75 95.48, 0 79.5 M0 79.5 C-1.74 62.38, -0.7 48.22, 0 26.5 M0 79.5 C-0.52 61.95, -0.65 43.92, 0 26.5 M0 26.5 C-0.7 8.66, 8.31 -1.6, 26.5 0 M0 26.5 C-0.01 10.92, 11.12 2.23, 26.5 0" stroke="#000000" stroke-width="1" fill="none"></path></g><g transform="translate(892.8564143188423 712.5639480978073) rotate(0 75.97594451904297 48)"><text x="0" y="0" font-family="Virgil, Segoe UI Emoji" font-size="16px" fill="#000000" text-anchor="start" style="white-space: pre;" direction="ltr" dominant-baseline="text-before-edge">permutationsHelper(</text><text x="0" y="19.2" font-family="Virgil, Segoe UI Emoji" font-size="16px" fill="#000000" text-anchor="start" style="white-space: pre;" direction="ltr" dominant-baseline="text-before-edge">  [2], </text><text x="0" y="38.4" font-family="Virgil, Segoe UI Emoji" font-size="16px" fill="#000000" text-anchor="start" style="white-space: pre;" direction="ltr" dominant-baseline="text-before-edge">  [3, 1], </text><text x="0" y="57.599999999999994" font-family="Virgil, Segoe UI Emoji" font-size="16px" fill="#000000" text-anchor="start" style="white-space: pre;" direction="ltr" dominant-baseline="text-before-edge">  permutations</text><text x="0" y="76.8" font-family="Virgil, Segoe UI Emoji" font-size="16px" fill="#000000" text-anchor="start" style="white-space: pre;" direction="ltr" dominant-baseline="text-before-edge">)</text></g><g stroke-linecap="round" transform="translate(1104.658548448726 708.534346402743) rotate(0 88 53)"><path d="M26.5 0 M26.5 0 C55.71 -1.43, 80.18 -2.81, 149.5 0 M26.5 0 C69.69 -0.71, 113.47 -1.87, 149.5 0 M149.5 0 C167.51 -1.47, 177.17 7.71, 176 26.5 M149.5 0 C167.4 -1.75, 174.33 9.13, 176 26.5 M176 26.5 C174.89 41.79, 175.17 55.54, 176 79.5 M176 26.5 C176.55 38.19, 176.27 49.09, 176 79.5 M176 79.5 C177.57 95.33, 168.07 106.49, 149.5 106 M176 79.5 C177.67 97.32, 166.62 107.56, 149.5 106 M149.5 106 C102.15 105.99, 53.51 107.15, 26.5 106 M149.5 106 C109.9 105.74, 70.15 104.65, 26.5 106 M26.5 106 C9.45 104.86, 1.12 98.83, 0 79.5 M26.5 106 C9.58 104.32, 0.24 97.93, 0 79.5 M0 79.5 C-0.11 61.54, 1.13 41.62, 0 26.5 M0 79.5 C-0.22 67.66, -0.25 55.74, 0 26.5 M0 26.5 C-0.53 7.23, 8.82 1.81, 26.5 0 M0 26.5 C2.29 11.07, 7.22 0.52, 26.5 0" stroke="#000000" stroke-width="1" fill="none"></path></g><g transform="translate(1109.658548448726 713.534346402743) rotate(0 75.97594451904297 48)"><text x="0" y="0" font-family="Virgil, Segoe UI Emoji" font-size="16px" fill="#000000" text-anchor="start" style="white-space: pre;" direction="ltr" dominant-baseline="text-before-edge">permutationsHelper(</text><text x="0" y="19.2" font-family="Virgil, Segoe UI Emoji" font-size="16px" fill="#000000" text-anchor="start" style="white-space: pre;" direction="ltr" dominant-baseline="text-before-edge">  [1], </text><text x="0" y="38.4" font-family="Virgil, Segoe UI Emoji" font-size="16px" fill="#000000" text-anchor="start" style="white-space: pre;" direction="ltr" dominant-baseline="text-before-edge">  [3, 2], </text><text x="0" y="57.599999999999994" font-family="Virgil, Segoe UI Emoji" font-size="16px" fill="#000000" text-anchor="start" style="white-space: pre;" direction="ltr" dominant-baseline="text-before-edge">  permutations</text><text x="0" y="76.8" font-family="Virgil, Segoe UI Emoji" font-size="16px" fill="#000000" text-anchor="start" style="white-space: pre;" direction="ltr" dominant-baseline="text-before-edge">)</text></g><g stroke-linecap="round"><g transform="translate(628.4517719592814 630.605320838245) rotate(0 0.08207254235617256 17.346974999358622)"><path d="M0.96 1.06 C0.91 6.32, 0.24 27.51, 0.1 32.63 M0 0.57 C-0.23 6.54, -0.7 28.79, -0.79 34.13" stroke="#000000" stroke-width="1" fill="none"></path></g></g><mask></mask><g stroke-linecap="round"><g transform="translate(548.9444752074814 669.5907674258392) rotate(0 96.02568802403357 0.42178895959375495)"><path d="M-0.84 -0.72 C31.31 -0.64, 160.8 -0.88, 192.89 -0.64 M0.92 1.52 C32.94 1.85, 159.9 1.02, 192.09 0.57" stroke="#000000" stroke-width="1" fill="none"></path></g></g><mask></mask><g stroke-linecap="round"><g transform="translate(210.18599288638416 642.6725500981688) rotate(0 0.31178011231349956 16.87931080219721)"><path d="M-0.45 0.42 C-0.6 6.03, -1.02 27.74, -0.97 33.23 M1.51 -0.4 C1.71 5.35, 1.56 28.41, 1.11 34.16" stroke="#000000" stroke-width="1" fill="none"></path></g></g><mask></mask><g stroke-linecap="round"><g transform="translate(102.82953796227412 676.392700419362) rotate(0 119.0949106977348 0.11329361443335983)"><path d="M-0.04 -1.14 C39.91 -1, 199.89 -0.18, 239.71 -0.16 M-1.52 0.87 C38.26 1.3, 198.18 1.48, 238.65 1.3" stroke="#000000" stroke-width="1" fill="none"></path></g></g><mask></mask><g stroke-linecap="round"><g transform="translate(1095.2888059963734 630.2361852924851) rotate(0 -0.7169495708058093 13.86397327037821)"><path d="M0.08 -0.69 C-0.12 3.99, -0.1 23.74, -0.01 28.42 M-1.34 1.56 C-1.8 5.91, -1.22 22.37, -0.97 26.91" stroke="#000000" stroke-width="1" fill="none"></path></g></g><mask></mask><g stroke-linecap="round"><g transform="translate(1004.039408371551 664.3639992812996) rotate(0 101.00976602707442 0.6318363697361065)"><path d="M0.41 0.7 C34.13 0.57, 168.99 0, 202.86 -0.11 M-0.84 0.02 C32.71 0.02, 168.01 1.15, 202.05 1.37" stroke="#000000" stroke-width="1" fill="none"></path></g></g><mask></mask><g stroke-linecap="round"><g transform="translate(105.19893002529898 678.4023412446747) rotate(0 -0.6156207721151077 13.244482032980613)"><path d="M0.47 -0.57 C0.3 4.01, -0.26 22.61, -0.52 27.06 M-0.75 1.74 C-1.14 6.06, -1.96 21.24, -1.61 25.53" stroke="#000000" stroke-width="1" fill="none"></path></g><g transform="translate(105.19893002529898 678.4023412446747) rotate(0 -0.6156207721151077 13.244482032980613)"><path d="M-6.74 13.08 C-3.41 16.56, -2.91 22.16, -1.58 26.73 M-6.14 12.98 C-4.57 16.66, -3.53 20.64, -1.42 26" stroke="#000000" stroke-width="1" fill="none"></path></g><g transform="translate(105.19893002529898 678.4023412446747) rotate(0 -0.6156207721151077 13.244482032980613)"><path d="M2.12 13.03 C2.44 16.55, -0.06 22.18, -1.58 26.73 M2.72 12.93 C1.55 16.58, -0.14 20.58, -1.42 26" stroke="#000000" stroke-width="1" fill="none"></path></g></g><mask></mask><g stroke-linecap="round"><g transform="translate(340.86434765741205 676.7104262775551) rotate(0 -0.42602159176021814 18.383115441417317)"><path d="M0.82 0.76 C0.79 6.72, -0.23 30.81, -0.47 36.65 M-0.22 0.12 C-0.42 5.63, -1.42 28.6, -1.67 34.73" stroke="#000000" stroke-width="1" fill="none"></path></g><g transform="translate(340.86434765741205 676.7104262775551) rotate(0 -0.42602159176021814 18.383115441417317)"><path d="M-5.99 16.73 C-4.93 21.2, -4.69 25.36, -1.03 34.58 M-7.6 16.77 C-6.62 21.53, -3.59 25.44, -1.12 34.12" stroke="#000000" stroke-width="1" fill="none"></path></g><g transform="translate(340.86434765741205 676.7104262775551) rotate(0 -0.42602159176021814 18.383115441417317)"><path d="M6.4 17.25 C4.05 21.66, 0.89 25.68, -1.03 34.58 M4.8 17.29 C2.92 21.97, 3.1 25.76, -1.12 34.12" stroke="#000000" stroke-width="1" fill="none"></path></g></g><mask></mask><g stroke-linecap="round"><g transform="translate(550.3929227540043 674.4225786055804) rotate(0 -0.47396855869101273 17.1118658129227)"><path d="M0.4 0.49 C0.49 6.37, -0.12 29.06, -0.27 34.53 M-0.85 -0.3 C-0.87 5.34, -1.24 27.2, -1.36 33.02" stroke="#000000" stroke-width="1" fill="none"></path></g><g transform="translate(550.3929227540043 674.4225786055804) rotate(0 -0.47396855869101273 17.1118658129227)"><path d="M-6.1 16.87 C-3.99 20.18, -4.41 26.09, -0.79 31.9 M-6.67 17.58 C-4.41 22.9, -2.38 28, -1.41 32.64" stroke="#000000" stroke-width="1" fill="none"></path></g><g transform="translate(550.3929227540043 674.4225786055804) rotate(0 -0.47396855869101273 17.1118658129227)"><path d="M5.31 17.08 C4.77 20.38, 1.7 26.24, -0.79 31.9 M4.73 17.79 C2.88 22.95, 0.79 27.98, -1.41 32.64" stroke="#000000" stroke-width="1" fill="none"></path></g></g><mask></mask><g stroke-linecap="round"><g transform="translate(746.9999468325486 669.4341485704063) rotate(0 -0.2356144392394981 15.634978029090007)"><path d="M-0.11 0.55 C-0.37 5.47, -0.96 25.1, -1.05 29.98 M-1.63 -0.2 C-1.56 4.88, 1.16 26.26, 1.16 31.47" stroke="#000000" stroke-width="1" fill="none"></path></g><g transform="translate(746.9999468325486 669.4341485704063) rotate(0 -0.2356144392394981 15.634978029090007)"><path d="M-4.29 16.54 C-2.94 21.74, -1.01 26.49, 2.22 31.2 M-5.27 18.15 C-3.71 21.96, -1.62 25.7, 0.42 30.79" stroke="#000000" stroke-width="1" fill="none"></path></g><g transform="translate(746.9999468325486 669.4341485704063) rotate(0 -0.2356144392394981 15.634978029090007)"><path d="M5.97 15.81 C3.83 21.25, 2.27 26.25, 2.22 31.2 M4.98 17.42 C3.77 21.48, 3.1 25.42, 0.42 30.79" stroke="#000000" stroke-width="1" fill="none"></path></g></g><mask></mask><g stroke-linecap="round"><g transform="translate(1004.2181182378545 664.8585115140841) rotate(0 -0.05232099806516999 21.35660394864317)"><path d="M0.49 1.03 C0.73 8.19, 0.54 35.52, 0.41 42.19 M-0.71 0.53 C-0.48 7.39, -0.1 33.41, -0.16 40.31" stroke="#000000" stroke-width="1" fill="none"></path></g><g transform="translate(1004.2181182378545 664.8585115140841) rotate(0 -0.05232099806516999 21.35660394864317)"><path d="M-5.66 21.96 C-5.16 24.96, -5.55 29.53, -1.14 39.17 M-7.71 20.2 C-4.93 27.46, -2.08 33.7, -0.28 40.57" stroke="#000000" stroke-width="1" fill="none"></path></g><g transform="translate(1004.2181182378545 664.8585115140841) rotate(0 -0.05232099806516999 21.35660394864317)"><path d="M8.6 21.89 C6.04 24.96, 2.57 29.55, -1.14 39.17 M6.56 20.13 C4.5 27.55, 2.52 33.82, -0.28 40.57" stroke="#000000" stroke-width="1" fill="none"></path></g></g><mask></mask><g stroke-linecap="round"><g transform="translate(1205.2964445192692 667.1337690584917) rotate(0 -0.32406801996739887 21.616490302353327)"><path d="M0.95 -0.58 C0.58 6.6, -1.26 36.65, -1.59 43.81 M-0.02 1.74 C-0.07 8.52, 0.91 35.26, 0.57 42.21" stroke="#000000" stroke-width="1" fill="none"></path></g><g transform="translate(1205.2964445192692 667.1337690584917) rotate(0 -0.32406801996739887 21.616490302353327)"><path d="M-7.69 20.34 C-2.38 28.22, -2.22 37.53, 0.27 40.34 M-7.23 21.18 C-4.55 28.65, -2.11 36.4, -0.37 41.28" stroke="#000000" stroke-width="1" fill="none"></path></g><g transform="translate(1205.2964445192692 667.1337690584917) rotate(0 -0.32406801996739887 21.616490302353327)"><path d="M6.96 20.36 C7.14 28.35, 2.16 37.65, 0.27 40.34 M7.41 21.2 C5.22 28.64, 2.8 36.38, -0.37 41.28" stroke="#000000" stroke-width="1" fill="none"></path></g></g><mask></mask><g stroke-linecap="round" transform="translate(10 851.27453397728) rotate(0 88 53)"><path d="M26.5 0 M26.5 0 C61.86 -1.87, 101 -1.72, 149.5 0 M26.5 0 C60.9 -0.6, 95.39 0.55, 149.5 0 M149.5 0 C166.81 -0.67, 176.56 8.32, 176 26.5 M149.5 0 C167.32 2.05, 177.74 7.59, 176 26.5 M176 26.5 C175.2 41.74, 177.34 56.47, 176 79.5 M176 26.5 C175.19 36.47, 176.27 47.5, 176 79.5 M176 79.5 C177.14 97.58, 165.31 107.88, 149.5 106 M176 79.5 C177.42 97.62, 165.7 104.91, 149.5 106 M149.5 106 C105.89 107.04, 61.48 105.44, 26.5 106 M149.5 106 C100.72 107.2, 53.37 107.41, 26.5 106 M26.5 106 C10.4 106.8, -1.29 96.93, 0 79.5 M26.5 106 C8.26 104.92, 1.01 96.9, 0 79.5 M0 79.5 C1.39 70.13, -1.04 56.4, 0 26.5 M0 79.5 C0.36 61.82, 0.55 41.42, 0 26.5 M0 26.5 C-1.53 8.56, 7.25 -1.4, 26.5 0 M0 26.5 C1.77 7.28, 7.5 0.61, 26.5 0" stroke="#000000" stroke-width="1" fill="none"></path></g><g transform="translate(15 856.27453397728) rotate(0 75.97594451904297 48)"><text x="0" y="0" font-family="Virgil, Segoe UI Emoji" font-size="16px" fill="#000000" text-anchor="start" style="white-space: pre;" direction="ltr" dominant-baseline="text-before-edge">permutationsHelper(</text><text x="0" y="19.2" font-family="Virgil, Segoe UI Emoji" font-size="16px" fill="#000000" text-anchor="start" style="white-space: pre;" direction="ltr" dominant-baseline="text-before-edge">  [], </text><text x="0" y="38.4" font-family="Virgil, Segoe UI Emoji" font-size="16px" fill="#000000" text-anchor="start" style="white-space: pre;" direction="ltr" dominant-baseline="text-before-edge">  [1, 2, 3], </text><text x="0" y="57.599999999999994" font-family="Virgil, Segoe UI Emoji" font-size="16px" fill="#000000" text-anchor="start" style="white-space: pre;" direction="ltr" dominant-baseline="text-before-edge">  permutations</text><text x="0" y="76.8" font-family="Virgil, Segoe UI Emoji" font-size="16px" fill="#000000" text-anchor="start" style="white-space: pre;" direction="ltr" dominant-baseline="text-before-edge">)</text></g><g stroke-linecap="round"><g transform="translate(101.39682305084898 811.6943521002665) rotate(0 -1.4485289481435757 18.1228324626386)"><path d="M-0.08 -0.52 C-0.36 5.46, -1.63 29.38, -2 35.72 M-1.58 1.83 C-1.97 7.94, -2.57 31.13, -2.82 36.76" stroke="#000000" stroke-width="1" fill="none"></path></g><g transform="translate(101.39682305084898 811.6943521002665) rotate(0 -1.4485289481435757 18.1228324626386)"><path d="M-9.3 19.68 C-8.42 24.02, -4.11 27.71, -3.53 37.47 M-7.99 19.73 C-6.76 25.06, -3.54 32.32, -3.16 36.04" stroke="#000000" stroke-width="1" fill="none"></path></g><g transform="translate(101.39682305084898 811.6943521002665) rotate(0 -1.4485289481435757 18.1228324626386)"><path d="M3.26 20.11 C0.72 24.32, 1.61 27.9, -3.53 37.47 M4.57 20.16 C1.35 25.31, 0.13 32.41, -3.16 36.04" stroke="#000000" stroke-width="1" fill="none"></path></g></g><mask></mask><g transform="translate(14.919933969009435 980.1737100037317) rotate(0 66.87195587158203 28.799999999999955)"><text x="0" y="0" font-family="Virgil, Segoe UI Emoji" font-size="16px" fill="#000000" text-anchor="start" style="white-space: pre;" direction="ltr" dominant-baseline="text-before-edge">permutations = [</text><text x="0" y="19.2" font-family="Virgil, Segoe UI Emoji" font-size="16px" fill="#000000" text-anchor="start" style="white-space: pre;" direction="ltr" dominant-baseline="text-before-edge">  [1, 2, 3],</text><text x="0" y="38.4" font-family="Virgil, Segoe UI Emoji" font-size="16px" fill="#000000" text-anchor="start" style="white-space: pre;" direction="ltr" dominant-baseline="text-before-edge">]</text></g><g stroke-linecap="round" transform="translate(232.0634168491515 853.4340720959356) rotate(0 88 53)"><path d="M26.5 0 M26.5 0 C54.22 0.6, 82.54 -0.64, 149.5 0 M26.5 0 C64.21 0.48, 101.84 0.26, 149.5 0 M149.5 0 C167.99 0.34, 175.71 10.32, 176 26.5 M149.5 0 C167.58 -1.9, 174.45 10.83, 176 26.5 M176 26.5 C177.76 43.51, 174.94 57.98, 176 79.5 M176 26.5 C175.33 42.23, 176.8 56.35, 176 79.5 M176 79.5 C177.65 96.15, 169.11 104.82, 149.5 106 M176 79.5 C175.75 99.19, 168.41 106.6, 149.5 106 M149.5 106 C108.83 104.55, 70.84 104.81, 26.5 106 M149.5 106 C118.29 105.02, 88.75 105.28, 26.5 106 M26.5 106 C10.49 107.4, 0.67 96.71, 0 79.5 M26.5 106 C10.3 105.89, -1.16 95.43, 0 79.5 M0 79.5 C1.72 66.31, -1.59 57.29, 0 26.5 M0 79.5 C0.47 59.21, -1.4 39.66, 0 26.5 M0 26.5 C1.64 9.23, 10.35 -1.71, 26.5 0 M0 26.5 C0.58 7.71, 10.27 1.56, 26.5 0" stroke="#000000" stroke-width="1" fill="none"></path></g><g transform="translate(237.0634168491515 858.4340720959356) rotate(0 75.97594451904297 48)"><text x="0" y="0" font-family="Virgil, Segoe UI Emoji" font-size="16px" fill="#000000" text-anchor="start" style="white-space: pre;" direction="ltr" dominant-baseline="text-before-edge">permutationsHelper(</text><text x="0" y="19.2" font-family="Virgil, Segoe UI Emoji" font-size="16px" fill="#000000" text-anchor="start" style="white-space: pre;" direction="ltr" dominant-baseline="text-before-edge">  [], </text><text x="0" y="38.4" font-family="Virgil, Segoe UI Emoji" font-size="16px" fill="#000000" text-anchor="start" style="white-space: pre;" direction="ltr" dominant-baseline="text-before-edge">  [1, 3, 2], </text><text x="0" y="57.599999999999994" font-family="Virgil, Segoe UI Emoji" font-size="16px" fill="#000000" text-anchor="start" style="white-space: pre;" direction="ltr" dominant-baseline="text-before-edge">  permutations</text><text x="0" y="76.8" font-family="Virgil, Segoe UI Emoji" font-size="16px" fill="#000000" text-anchor="start" style="white-space: pre;" direction="ltr" dominant-baseline="text-before-edge">)</text></g><g stroke-linecap="round"><g transform="translate(323.338684968267 813.1885563754097) rotate(0 -1.3458160199800204 19.853313837070914)"><path d="M0.64 1.16 C0.18 7.33, -1.75 31.5, -2.33 37.41 M-0.48 0.72 C-1.15 7.06, -2.76 32.86, -3.33 38.99" stroke="#000000" stroke-width="1" fill="none"></path></g><g transform="translate(323.338684968267 813.1885563754097) rotate(0 -1.3458160199800204 19.853313837070914)"><path d="M-6.57 20.82 C-6.48 26.07, -6.08 33.04, -3.89 38.66 M-8.51 21.68 C-6.88 24.67, -6.43 30.73, -3.2 39.15" stroke="#000000" stroke-width="1" fill="none"></path></g><g transform="translate(323.338684968267 813.1885563754097) rotate(0 -1.3458160199800204 19.853313837070914)"><path d="M6.18 21.79 C1.96 26.78, -1.95 33.42, -3.89 38.66 M4.24 22.65 C2.7 25.42, -0.01 31.24, -3.2 39.15" stroke="#000000" stroke-width="1" fill="none"></path></g></g><mask></mask><g transform="translate(236.9835839686707 982.1034200066549) rotate(0 66.87195587158203 38.39999999999998)"><text x="0" y="0" font-family="Virgil, Segoe UI Emoji" font-size="16px" fill="#000000" text-anchor="start" style="white-space: pre;" direction="ltr" dominant-baseline="text-before-edge">permutations = [</text><text x="0" y="19.2" font-family="Virgil, Segoe UI Emoji" font-size="16px" fill="#000000" text-anchor="start" style="white-space: pre;" direction="ltr" dominant-baseline="text-before-edge">  [1, 2, 3],</text><text x="0" y="38.4" font-family="Virgil, Segoe UI Emoji" font-size="16px" fill="#000000" text-anchor="start" style="white-space: pre;" direction="ltr" dominant-baseline="text-before-edge">  [1, 3, 2],</text><text x="0" y="57.599999999999994" font-family="Virgil, Segoe UI Emoji" font-size="16px" fill="#000000" text-anchor="start" style="white-space: pre;" direction="ltr" dominant-baseline="text-before-edge">]</text></g><g transform="translate(536.6668781262888 243.1611472741988) rotate(0 70.87195587158203 38.39999999999998)"><text x="0" y="0" font-family="Virgil, Segoe UI Emoji" font-size="16px" fill="#000000" text-anchor="start" style="white-space: pre;" direction="ltr" dominant-baseline="text-before-edge">SOLUTION #1</text><text x="0" y="19.2" font-family="Virgil, Segoe UI Emoji" font-size="16px" fill="#000000" text-anchor="start" style="white-space: pre;" direction="ltr" dominant-baseline="text-before-edge"></text><text x="0" y="38.4" font-family="Virgil, Segoe UI Emoji" font-size="16px" fill="#000000" text-anchor="start" style="white-space: pre;" direction="ltr" dominant-baseline="text-before-edge">array = []</text><text x="0" y="57.599999999999994" font-family="Virgil, Segoe UI Emoji" font-size="16px" fill="#000000" text-anchor="start" style="white-space: pre;" direction="ltr" dominant-baseline="text-before-edge">permutations = []</text></g><g stroke-linecap="round" transform="translate(451.508087164289 851.3191152404236) rotate(0 88 53)"><path d="M26.5 0 M26.5 0 C70.01 0.93, 116.82 -0.02, 149.5 0 M26.5 0 C61.03 0.54, 93.12 0.68, 149.5 0 M149.5 0 C168.12 0.13, 176.7 8.34, 176 26.5 M149.5 0 C165 -2.2, 178.2 10.03, 176 26.5 M176 26.5 C177.96 39.23, 175.93 52.72, 176 79.5 M176 26.5 C176.79 37.91, 175.91 48.85, 176 79.5 M176 79.5 C177.27 95.35, 166.69 107.85, 149.5 106 M176 79.5 C174.88 98.78, 168.77 104.86, 149.5 106 M149.5 106 C105.28 104.96, 56.2 105.77, 26.5 106 M149.5 106 C110.5 106.53, 71.06 106.17, 26.5 106 M26.5 106 C8.36 105.57, 1.37 98.25, 0 79.5 M26.5 106 C8.73 107.43, 1.44 97.9, 0 79.5 M0 79.5 C1.2 61.62, -1.03 42.09, 0 26.5 M0 79.5 C-0.46 62.25, 0.18 44.55, 0 26.5 M0 26.5 C1.24 9.77, 9.3 1.78, 26.5 0 M0 26.5 C1.06 8.75, 7.4 2.11, 26.5 0" stroke="#000000" stroke-width="1" fill="none"></path></g><g transform="translate(456.508087164289 856.3191152404236) rotate(0 75.97594451904297 48)"><text x="0" y="0" font-family="Virgil, Segoe UI Emoji" font-size="16px" fill="#000000" text-anchor="start" style="white-space: pre;" direction="ltr" dominant-baseline="text-before-edge">permutationsHelper(</text><text x="0" y="19.2" font-family="Virgil, Segoe UI Emoji" font-size="16px" fill="#000000" text-anchor="start" style="white-space: pre;" direction="ltr" dominant-baseline="text-before-edge">  [], </text><text x="0" y="38.4" font-family="Virgil, Segoe UI Emoji" font-size="16px" fill="#000000" text-anchor="start" style="white-space: pre;" direction="ltr" dominant-baseline="text-before-edge">  [2, 1, 3], </text><text x="0" y="57.599999999999994" font-family="Virgil, Segoe UI Emoji" font-size="16px" fill="#000000" text-anchor="start" style="white-space: pre;" direction="ltr" dominant-baseline="text-before-edge">  permutations</text><text x="0" y="76.8" font-family="Virgil, Segoe UI Emoji" font-size="16px" fill="#000000" text-anchor="start" style="white-space: pre;" direction="ltr" dominant-baseline="text-before-edge">)</text></g><g stroke-linecap="round"><g transform="translate(542.904910215138 811.7389333634098) rotate(0 -1.068909029528868 19.09561102676207)"><path d="M0.76 1 C0.36 7.14, -1.63 30.58, -2.05 36.34 M-0.3 0.48 C-0.87 6.84, -2.56 31.75, -2.9 37.71" stroke="#000000" stroke-width="1" fill="none"></path></g><g transform="translate(542.904910215138 811.7389333634098) rotate(0 -1.068909029528868 19.09561102676207)"><path d="M-6.54 20.39 C-6.93 26.53, -6.46 33.2, -4.02 36.43 M-7.75 19.87 C-7.54 23.67, -4.49 29.49, -3.21 38.05" stroke="#000000" stroke-width="1" fill="none"></path></g><g transform="translate(542.904910215138 811.7389333634098) rotate(0 -1.068909029528868 19.09561102676207)"><path d="M6 21.19 C1.5 27.15, -2.15 33.56, -4.02 36.43 M4.78 20.66 C1.81 24.28, 1.69 29.89, -3.21 38.05" stroke="#000000" stroke-width="1" fill="none"></path></g></g><mask></mask><g transform="translate(456.42802113329844 980.2182912668763) rotate(0 66.87195587158203 48)"><text x="0" y="0" font-family="Virgil, Segoe UI Emoji" font-size="16px" fill="#000000" text-anchor="start" style="white-space: pre;" direction="ltr" dominant-baseline="text-before-edge">permutations = [</text><text x="0" y="19.2" font-family="Virgil, Segoe UI Emoji" font-size="16px" fill="#000000" text-anchor="start" style="white-space: pre;" direction="ltr" dominant-baseline="text-before-edge">  [1, 2, 3],</text><text x="0" y="38.4" font-family="Virgil, Segoe UI Emoji" font-size="16px" fill="#000000" text-anchor="start" style="white-space: pre;" direction="ltr" dominant-baseline="text-before-edge">  [1, 3, 2],</text><text x="0" y="57.599999999999994" font-family="Virgil, Segoe UI Emoji" font-size="16px" fill="#000000" text-anchor="start" style="white-space: pre;" direction="ltr" dominant-baseline="text-before-edge">  [2, 1, 3],</text><text x="0" y="76.8" font-family="Virgil, Segoe UI Emoji" font-size="16px" fill="#000000" text-anchor="start" style="white-space: pre;" direction="ltr" dominant-baseline="text-before-edge">]</text></g><g stroke-linecap="round" transform="translate(665.5739752020331 850.9585567745514) rotate(0 88.00000000000023 53)"><path d="M26.5 0 M26.5 0 C72.55 1.45, 120.64 -1.79, 149.5 0 M26.5 0 C53.51 0.48, 80.12 0.33, 149.5 0 M149.5 0 C168.73 -0.74, 176.99 7.88, 176 26.5 M149.5 0 C165.22 1.11, 177.45 11.12, 176 26.5 M176 26.5 C175.59 40.67, 176.82 56.34, 176 79.5 M176 26.5 C175.61 39.54, 175.69 51.11, 176 79.5 M176 79.5 C174.74 96.53, 165.28 107.47, 149.5 106 M176 79.5 C178.06 97.75, 166.64 105.18, 149.5 106 M149.5 106 C103.15 108.62, 52.94 106.61, 26.5 106 M149.5 106 C114.78 105.43, 80.7 105.21, 26.5 106 M26.5 106 C8.29 106.95, 0.96 95.3, 0 79.5 M26.5 106 C10.49 104.54, 0.32 98.16, 0 79.5 M0 79.5 C1.77 70.45, 0.68 59.53, 0 26.5 M0 79.5 C0.87 58.94, 0.2 40.17, 0 26.5 M0 26.5 C-1.9 10.04, 9.61 0.04, 26.5 0 M0 26.5 C-1.67 6.85, 11.09 0.92, 26.5 0" stroke="#000000" stroke-width="1" fill="none"></path></g><g transform="translate(670.5739752020331 855.9585567745514) rotate(0 75.97594451904297 48)"><text x="0" y="0" font-family="Virgil, Segoe UI Emoji" font-size="16px" fill="#000000" text-anchor="start" style="white-space: pre;" direction="ltr" dominant-baseline="text-before-edge">permutationsHelper(</text><text x="0" y="19.2" font-family="Virgil, Segoe UI Emoji" font-size="16px" fill="#000000" text-anchor="start" style="white-space: pre;" direction="ltr" dominant-baseline="text-before-edge">  [], </text><text x="0" y="38.4" font-family="Virgil, Segoe UI Emoji" font-size="16px" fill="#000000" text-anchor="start" style="white-space: pre;" direction="ltr" dominant-baseline="text-before-edge">  [2, 3, 1], </text><text x="0" y="57.599999999999994" font-family="Virgil, Segoe UI Emoji" font-size="16px" fill="#000000" text-anchor="start" style="white-space: pre;" direction="ltr" dominant-baseline="text-before-edge">  permutations</text><text x="0" y="76.8" font-family="Virgil, Segoe UI Emoji" font-size="16px" fill="#000000" text-anchor="start" style="white-space: pre;" direction="ltr" dominant-baseline="text-before-edge">)</text></g><g stroke-linecap="round"><g transform="translate(756.9707982528821 811.3783748975382) rotate(0 -1.2254170869164227 18.646188468812056)"><path d="M0.87 1.08 C0.31 7.04, -2.81 29.83, -3.32 35.67 M-0.14 0.6 C-0.33 6.69, -0.71 30.6, -1.17 36.69" stroke="#000000" stroke-width="1" fill="none"></path></g><g transform="translate(756.9707982528821 811.3783748975382) rotate(0 -1.2254170869164227 18.646188468812056)"><path d="M-5.07 17.55 C-6.58 24.51, -4.22 30.07, -1.3 36.79 M-6.27 18.75 C-5.82 24.51, -2.92 29.85, -1.42 37.11" stroke="#000000" stroke-width="1" fill="none"></path></g><g transform="translate(756.9707982528821 811.3783748975382) rotate(0 -1.2254170869164227 18.646188468812056)"><path d="M7.48 18.07 C2.21 24.96, 0.8 30.37, -1.3 36.79 M6.28 19.27 C3.24 24.85, 2.65 30.03, -1.42 37.11" stroke="#000000" stroke-width="1" fill="none"></path></g></g><mask></mask><g transform="translate(670.4939091710426 979.857732801006) rotate(0 66.87195587158203 57.59999999999991)"><text x="0" y="0" font-family="Virgil, Segoe UI Emoji" font-size="16px" fill="#000000" text-anchor="start" style="white-space: pre;" direction="ltr" dominant-baseline="text-before-edge">permutations = [</text><text x="0" y="19.2" font-family="Virgil, Segoe UI Emoji" font-size="16px" fill="#000000" text-anchor="start" style="white-space: pre;" direction="ltr" dominant-baseline="text-before-edge">  [1, 2, 3],</text><text x="0" y="38.4" font-family="Virgil, Segoe UI Emoji" font-size="16px" fill="#000000" text-anchor="start" style="white-space: pre;" direction="ltr" dominant-baseline="text-before-edge">  [1, 3, 2],</text><text x="0" y="57.599999999999994" font-family="Virgil, Segoe UI Emoji" font-size="16px" fill="#000000" text-anchor="start" style="white-space: pre;" direction="ltr" dominant-baseline="text-before-edge">  [2, 1, 3],</text><text x="0" y="76.8" font-family="Virgil, Segoe UI Emoji" font-size="16px" fill="#000000" text-anchor="start" style="white-space: pre;" direction="ltr" dominant-baseline="text-before-edge">  [2, 3, 1],</text><text x="0" y="96" font-family="Virgil, Segoe UI Emoji" font-size="16px" fill="#000000" text-anchor="start" style="white-space: pre;" direction="ltr" dominant-baseline="text-before-edge">]</text></g><g stroke-linecap="round" transform="translate(884.4679819807197 854.385949766759) rotate(0 88 53)"><path d="M26.5 0 M26.5 0 C72.43 0.09, 118.94 2.66, 149.5 0 M26.5 0 C64.16 1.07, 102.11 0.7, 149.5 0 M149.5 0 C167.62 1.39, 177.89 9.02, 176 26.5 M149.5 0 C165.19 -1.51, 176.95 6.58, 176 26.5 M176 26.5 C175.88 39.53, 175.1 56.72, 176 79.5 M176 26.5 C176.19 39.31, 175.48 50.42, 176 79.5 M176 79.5 C175.87 97.25, 168.7 106.01, 149.5 106 M176 79.5 C174.77 95.65, 168.81 104.47, 149.5 106 M149.5 106 C116.31 108.1, 81.3 108.55, 26.5 106 M149.5 106 C119.25 107.01, 88.34 106.55, 26.5 106 M26.5 106 C7.56 105.56, -1.55 96.68, 0 79.5 M26.5 106 C8.63 104.44, 2.09 97.78, 0 79.5 M0 79.5 C-0.31 59.48, -0.77 43.87, 0 26.5 M0 79.5 C0.45 64.15, -0.51 47.89, 0 26.5 M0 26.5 C-0.85 8.8, 7.23 0.06, 26.5 0 M0 26.5 C-2.12 6.95, 9.36 1.11, 26.5 0" stroke="#000000" stroke-width="1" fill="none"></path></g><g transform="translate(889.4679819807197 859.385949766759) rotate(0 75.97594451904297 48)"><text x="0" y="0" font-family="Virgil, Segoe UI Emoji" font-size="16px" fill="#000000" text-anchor="start" style="white-space: pre;" direction="ltr" dominant-baseline="text-before-edge">permutationsHelper(</text><text x="0" y="19.2" font-family="Virgil, Segoe UI Emoji" font-size="16px" fill="#000000" text-anchor="start" style="white-space: pre;" direction="ltr" dominant-baseline="text-before-edge">  [], </text><text x="0" y="38.4" font-family="Virgil, Segoe UI Emoji" font-size="16px" fill="#000000" text-anchor="start" style="white-space: pre;" direction="ltr" dominant-baseline="text-before-edge">  [3, 1, 2], </text><text x="0" y="57.599999999999994" font-family="Virgil, Segoe UI Emoji" font-size="16px" fill="#000000" text-anchor="start" style="white-space: pre;" direction="ltr" dominant-baseline="text-before-edge">  permutations</text><text x="0" y="76.8" font-family="Virgil, Segoe UI Emoji" font-size="16px" fill="#000000" text-anchor="start" style="white-space: pre;" direction="ltr" dominant-baseline="text-before-edge">)</text></g><g stroke-linecap="round"><g transform="translate(975.8648050315687 814.8057678897458) rotate(0 -0.2126842781030973 19.45089998920446)"><path d="M-0.59 1.08 C-0.63 7.14, -0.83 30.99, -1.29 36.73 M1.31 0.6 C1.28 6.84, -1.34 32.37, -1.73 38.3" stroke="#000000" stroke-width="1" fill="none"></path></g><g transform="translate(975.8648050315687 814.8057678897458) rotate(0 -0.2126842781030973 19.45089998920446)"><path d="M-4.86 22.04 C-5.33 22.69, -6.18 28.19, -1.93 38.89 M-5.65 20.66 C-6.06 24.4, -3.69 28.57, -1.97 38.03" stroke="#000000" stroke-width="1" fill="none"></path></g><g transform="translate(975.8648050315687 814.8057678897458) rotate(0 -0.2126842781030973 19.45089998920446)"><path d="M7.65 23.12 C4.52 23.47, 0.99 28.74, -1.93 38.89 M6.87 21.74 C3.3 25.3, 2.52 29.19, -1.97 38.03" stroke="#000000" stroke-width="1" fill="none"></path></g></g><mask></mask><g transform="translate(889.3879159497292 983.2851257932139) rotate(0 66.87195587158203 67.20000000000005)"><text x="0" y="0" font-family="Virgil, Segoe UI Emoji" font-size="16px" fill="#000000" text-anchor="start" style="white-space: pre;" direction="ltr" dominant-baseline="text-before-edge">permutations = [</text><text x="0" y="19.2" font-family="Virgil, Segoe UI Emoji" font-size="16px" fill="#000000" text-anchor="start" style="white-space: pre;" direction="ltr" dominant-baseline="text-before-edge">  [1, 2, 3],</text><text x="0" y="38.4" font-family="Virgil, Segoe UI Emoji" font-size="16px" fill="#000000" text-anchor="start" style="white-space: pre;" direction="ltr" dominant-baseline="text-before-edge">  [1, 3, 2],</text><text x="0" y="57.599999999999994" font-family="Virgil, Segoe UI Emoji" font-size="16px" fill="#000000" text-anchor="start" style="white-space: pre;" direction="ltr" dominant-baseline="text-before-edge">  [2, 1, 3],</text><text x="0" y="76.8" font-family="Virgil, Segoe UI Emoji" font-size="16px" fill="#000000" text-anchor="start" style="white-space: pre;" direction="ltr" dominant-baseline="text-before-edge">  [2, 3, 1],</text><text x="0" y="96" font-family="Virgil, Segoe UI Emoji" font-size="16px" fill="#000000" text-anchor="start" style="white-space: pre;" direction="ltr" dominant-baseline="text-before-edge">  [3, 1, 2],</text><text x="0" y="115.19999999999999" font-family="Virgil, Segoe UI Emoji" font-size="16px" fill="#000000" text-anchor="start" style="white-space: pre;" direction="ltr" dominant-baseline="text-before-edge">]</text></g><g stroke-linecap="round" transform="translate(1102.9208449039115 856.2661289482594) rotate(0 88 53)"><path d="M26.5 0 M26.5 0 C62.59 1.78, 98.8 0, 149.5 0 M26.5 0 C67.13 0.04, 106.81 1.66, 149.5 0 M149.5 0 C167.55 -1.24, 175.09 9.15, 176 26.5 M149.5 0 C167.2 1.22, 174.85 8.24, 176 26.5 M176 26.5 C176.67 41.35, 177.21 56.72, 176 79.5 M176 26.5 C175.62 37.97, 176.94 49.56, 176 79.5 M176 79.5 C176.11 98.35, 166.11 106.81, 149.5 106 M176 79.5 C176.22 98.5, 168.45 103.9, 149.5 106 M149.5 106 C114.55 103.77, 76.25 106.46, 26.5 106 M149.5 106 C108.27 104.54, 66.38 104.97, 26.5 106 M26.5 106 C10.62 104.02, 1.44 97.96, 0 79.5 M26.5 106 C8.56 104.55, 1.22 97.91, 0 79.5 M0 79.5 C-1.33 62.06, 1.52 41.38, 0 26.5 M0 79.5 C0.57 68.71, -0.61 57.6, 0 26.5 M0 26.5 C-0.93 10.33, 9.86 1.39, 26.5 0 M0 26.5 C1.33 8.36, 6.98 -0.92, 26.5 0" stroke="#000000" stroke-width="1" fill="none"></path></g><g transform="translate(1107.9208449039115 861.2661289482594) rotate(0 75.97594451904297 48)"><text x="0" y="0" font-family="Virgil, Segoe UI Emoji" font-size="16px" fill="#000000" text-anchor="start" style="white-space: pre;" direction="ltr" dominant-baseline="text-before-edge">permutationsHelper(</text><text x="0" y="19.2" font-family="Virgil, Segoe UI Emoji" font-size="16px" fill="#000000" text-anchor="start" style="white-space: pre;" direction="ltr" dominant-baseline="text-before-edge">  [], </text><text x="0" y="38.4" font-family="Virgil, Segoe UI Emoji" font-size="16px" fill="#000000" text-anchor="start" style="white-space: pre;" direction="ltr" dominant-baseline="text-before-edge">  [3, 2, 1], </text><text x="0" y="57.599999999999994" font-family="Virgil, Segoe UI Emoji" font-size="16px" fill="#000000" text-anchor="start" style="white-space: pre;" direction="ltr" dominant-baseline="text-before-edge">  permutations</text><text x="0" y="76.8" font-family="Virgil, Segoe UI Emoji" font-size="16px" fill="#000000" text-anchor="start" style="white-space: pre;" direction="ltr" dominant-baseline="text-before-edge">)</text></g><g stroke-linecap="round"><g transform="translate(1194.3176679547587 816.6859470712461) rotate(0 -1.6933509028108347 18.001821101727046)"><path d="M0.57 -0.96 C0.25 5.28, -2.21 30.85, -2.75 36.97 M-0.59 1.14 C-1.04 7.06, -3.44 29.1, -3.96 35.01" stroke="#000000" stroke-width="1" fill="none"></path></g><g transform="translate(1194.3176679547587 816.6859470712461) rotate(0 -1.6933509028108347 18.001821101727046)"><path d="M-9.99 16.46 C-7.06 20.67, -7.85 26.45, -5.57 35.24 M-8.93 17.37 C-6.76 24.39, -5.53 30.33, -3.98 34.39" stroke="#000000" stroke-width="1" fill="none"></path></g><g transform="translate(1194.3176679547587 816.6859470712461) rotate(0 -1.6933509028108347 18.001821101727046)"><path d="M2.51 17.69 C2.55 21.67, -1.15 27.17, -5.57 35.24 M3.57 18.6 C1.06 25.09, -2.39 30.57, -3.98 34.39" stroke="#000000" stroke-width="1" fill="none"></path></g></g><mask></mask><g transform="translate(1107.840778872921 985.1653049747133) rotate(0 66.87195587158203 76.79999999999995)"><text x="0" y="0" font-family="Virgil, Segoe UI Emoji" font-size="16px" fill="#000000" text-anchor="start" style="white-space: pre;" direction="ltr" dominant-baseline="text-before-edge">permutations = [</text><text x="0" y="19.2" font-family="Virgil, Segoe UI Emoji" font-size="16px" fill="#000000" text-anchor="start" style="white-space: pre;" direction="ltr" dominant-baseline="text-before-edge">  [1, 2, 3],</text><text x="0" y="38.4" font-family="Virgil, Segoe UI Emoji" font-size="16px" fill="#000000" text-anchor="start" style="white-space: pre;" direction="ltr" dominant-baseline="text-before-edge">  [1, 3, 2],</text><text x="0" y="57.599999999999994" font-family="Virgil, Segoe UI Emoji" font-size="16px" fill="#000000" text-anchor="start" style="white-space: pre;" direction="ltr" dominant-baseline="text-before-edge">  [2, 1, 3],</text><text x="0" y="76.8" font-family="Virgil, Segoe UI Emoji" font-size="16px" fill="#000000" text-anchor="start" style="white-space: pre;" direction="ltr" dominant-baseline="text-before-edge">  [2, 3, 1],</text><text x="0" y="96" font-family="Virgil, Segoe UI Emoji" font-size="16px" fill="#000000" text-anchor="start" style="white-space: pre;" direction="ltr" dominant-baseline="text-before-edge">  [3, 1, 2],</text><text x="0" y="115.19999999999999" font-family="Virgil, Segoe UI Emoji" font-size="16px" fill="#000000" text-anchor="start" style="white-space: pre;" direction="ltr" dominant-baseline="text-before-edge">  [3, 2, 1],</text><text x="0" y="134.4" font-family="Virgil, Segoe UI Emoji" font-size="16px" fill="#000000" text-anchor="start" style="white-space: pre;" direction="ltr" dominant-baseline="text-before-edge">]</text></g></svg>